<?xml version="1.0" encoding="utf-8"?>
<!-- Generator: Adobe Illustrator 22.0.1, SVG Export Plug-In . SVG Version: 6.00 Build 0)  -->
<svg version="1.1" id="Layer_1" xmlns="http://www.w3.org/2000/svg" xmlns:xlink="http://www.w3.org/1999/xlink" x="0px" y="0px"
	 viewBox="0 0 500 500" style="enable-background:new 0 0 500 500;" xml:space="preserve">
<style type="text/css">
	.st0{fill-rule:evenodd;clip-rule:evenodd;fill:#17AA1C;}
	.st1{fill:#FE223B;}
</style>
<g>
	<path class="st0" d="M289.1,221.5c-1.8,0.2-3.1,0.7-3.9,1.7c-0.5,0.5-0.8,1.2-1.1,1.9c-0.3,0.8-0.4,1.7-0.4,2.7v10.1
		c-0.9-0.7-1.9-1.2-3-1.6c-1.6-0.6-3.3-0.9-5-0.9c-4.8,0-8.5,1.4-11.1,4.2c-2.6,2.8-3.9,7-3.9,12.5c0,5.4,1.3,9.5,3.9,12.4
		c2.6,2.9,6.4,4.3,11.4,4.3c2.3,0,4.3-0.3,6.1-1c1.8-0.6,3.3-1.6,4.6-2.8c1.3-1.2,2.2-2.7,2.9-4.4c0.7-1.7,1-3.7,1-5.7v-32.1
		C290.6,222,289.9,221.4,289.1,221.5L289.1,221.5z M283.7,254.3c0,1.3-0.2,2.4-0.5,3.3c-0.3,1-0.8,1.8-1.5,2.4
		c-0.7,0.7-1.5,1.2-2.4,1.5c-1,0.3-2.1,0.5-3.3,0.5c-1.5,0-2.7-0.2-3.7-0.6c-1.1-0.4-1.9-1-2.6-1.8c-1.4-1.6-2-4.2-2-7.8
		c0-1.8,0.2-3.3,0.5-4.6c0.3-1.3,0.8-2.3,1.6-3.2c0.3-0.4,0.7-0.8,1.2-1.1c0.4-0.3,0.9-0.6,1.4-0.8c1-0.4,2.3-0.6,3.7-0.6
		c1,0,2,0.2,2.9,0.5c0.9,0.3,1.8,0.8,2.5,1.4c1.5,1.3,2.3,3,2.3,4.9L283.7,254.3L283.7,254.3L283.7,254.3z"/>
	<path class="st0" d="M409.9,236.8c-0.2-0.4-0.6-0.8-1-1c-0.9-0.3-1.8-0.5-2.7-0.5c-1.1,0-2.1,0.3-2.9,0.7c-0.9,0.5-1.5,1-1.9,1.8
		l-8.4,18.3l-8-18.4v0c-0.4-0.8-1-1.3-1.8-1.7c-0.8-0.4-1.8-0.7-2.9-0.7c-0.9,0-1.8,0.2-2.7,0.5c-0.5,0.2-0.8,0.5-1,1
		c-0.2,0.4-0.2,0.9,0,1.3l12.2,27.3c-0.3,0.7-0.6,1.3-0.8,2c-1,2.2-1.9,3.9-3,5c-0.5,0.5-1.2,0.9-1.8,1.2c-0.7,0.3-1.6,0.4-2.6,0.4
		h-2.8c-0.7,0-1.3,0.3-1.7,0.7c-0.4,0.4-0.6,1-0.6,1.6c0.1,0.7,0.3,1.4,0.7,2c0.3,0.6,0.8,1.1,1.4,1.6c1.2,0.8,2.6,1.3,4.2,1.3
		c1.5,0,2.9-0.3,4.2-0.7c1.3-0.4,2.5-1.1,3.6-2c1.1-0.9,2.1-2,3-3.3c0.9-1.3,1.7-2.8,2.5-4.5l15.1-32.7
		C410,237.7,410.1,237.2,409.9,236.8L409.9,236.8z"/>
	<path class="st0" d="M375.7,267.1v-18.9c0-3.6-0.9-6.5-2.8-8.6c-2.4-2.8-6.4-4.3-11.6-4.3c-1.1,0-2.1,0.1-3.1,0.3
		c-0.9,0.2-1.9,0.4-2.7,0.8c-0.8,0.3-1.6,0.8-2.3,1.3c-0.6,0.4-1.1,0.8-1.6,1.3c-1.1-1.1-2.6-1.9-4.3-2.6c-1.9-0.7-4-1-6.4-1
		c-1.5,0-3,0.3-4.4,0.7c-1.2,0.4-2.3,1-3.2,1.7c-0.2-0.3-0.4-0.5-0.6-0.7c-0.3-0.3-0.8-0.6-1.3-0.8c-0.9-0.4-1.9-0.7-3.2-0.8
		c-0.5-0.1-1,0.1-1.4,0.4c-0.4,0.3-0.6,0.7-0.6,1.2v26.1c0,1,0.2,1.8,0.5,2.6c0.3,0.7,0.8,1.3,1.3,1.7c0.9,0.7,2.2,1.2,3.8,1.4
		c1.1,0.2,1.9-0.5,1.9-1.6v-18.9c0-1,0.2-1.9,0.4-2.6c0.3-0.7,0.7-1.3,1.2-1.8c0.5-0.5,1.2-0.8,2-1.1c0.8-0.2,1.8-0.4,3-0.4
		c1.3,0,2.3,0.1,3.2,0.3c0.9,0.2,1.5,0.6,2,1.1c0.5,0.5,0.9,1.2,1.2,2c0.3,0.9,0.4,1.9,0.4,3.3v13.9c0,1,0.2,1.8,0.5,2.6
		c0.3,0.7,0.8,1.3,1.3,1.7c0.9,0.7,2.2,1.2,3.8,1.4c1.1,0.2,1.9-0.5,1.9-1.6v-18.9c0-2.1,0.5-3.6,1.6-4.5c1-0.9,2.7-1.4,5-1.4
		c2.6,0,4.3,0.5,5.3,1.5c0.6,0.5,0.9,1.2,1.2,2c0.3,0.9,0.4,1.9,0.4,3.2v13.9c0,1,0.2,1.8,0.5,2.6c0.3,0.7,0.8,1.3,1.3,1.7
		c0.9,0.7,2.2,1.2,3.8,1.4c0.1,0,0.2,0,0.3,0c0.4,0,0.8-0.2,1.1-0.4C375.5,268,375.7,267.6,375.7,267.1L375.7,267.1z"/>
	<path class="st0" d="M308.8,235.3c-2.4,0-4.6,0.4-6.5,1.1c-1.9,0.7-3.5,1.8-4.8,3.3c-1.3,1.4-2.3,3.2-3,5.3c-0.7,2.1-1,4.4-1,7
		c0,2.9,0.4,5.4,1.2,7.6c0.8,2.1,1.9,3.8,3.3,5.2c1.4,1.3,3.1,2.3,5.1,3c1.9,0.6,4,0.9,6.4,0.9c5.7,0,12.2-3.5,12.2-7.9
		c0-0.6-0.2-1.3-0.6-1.8c-0.4-0.5-0.9-0.8-1.5-0.8c-0.3,0-0.7,0.1-1,0.3c-0.5,0.3-0.9,0.6-1.4,0.9c-1.8,1.3-3.8,2.7-7.6,2.7
		c-1.3,0-2.5-0.2-3.6-0.5c-1.1-0.3-2-0.8-2.8-1.5c-0.8-0.7-1.4-1.5-1.8-2.4c-0.4-0.9-0.7-2-0.8-3.3H319c0.9,0,1.7-0.2,2.3-0.6
		c0.5-0.3,0.9-0.8,1.2-1.4c0.5-1.1,0.5-2.4,0.5-3.3c0-1.5-0.3-5.3-2.7-8.6C317.9,237,314,235.3,308.8,235.3L308.8,235.3z
		 M315.9,248.1c-0.2,0.2-0.4,0.3-0.6,0.3h-14.8c0.2-1.1,0.5-2,0.9-2.9c0.4-0.8,1-1.6,1.7-2.1c0.7-0.6,1.5-1,2.4-1.3
		c0.9-0.3,2-0.4,3.2-0.4c2.3,0,3.9,0.5,5.1,1.4c1.2,0.9,1.9,2.4,2.2,4.4C316.1,247.8,316,248,315.9,248.1L315.9,248.1z"/>
	<g>
		<g>
			<path class="st1" d="M91.4,234.6H105c1.7,0,3.1,0.2,4.3,0.6c1.2,0.4,2.2,0.9,2.9,1.7s1.3,1.7,1.7,2.9c0.4,1.2,0.5,2.6,0.5,4.1
				c0,1.4-0.1,2.5-0.4,3.3s-0.6,1.5-1.1,2c-0.4,0.5-0.9,0.8-1.4,1.1c-0.5,0.2-1,0.4-1.5,0.5v0c0.3,0,0.6,0.1,1,0.2
				c0.4,0.1,0.8,0.3,1.3,0.5c0.4,0.2,0.9,0.5,1.3,0.9c0.4,0.4,0.8,0.8,1.1,1.4c0.3,0.6,0.6,1.2,0.8,2c0.2,0.8,0.3,1.7,0.3,2.8
				c0,2.1-0.2,3.8-0.6,5.1c-0.4,1.3-1.1,2.4-1.9,3.1c-0.8,0.7-1.9,1.3-3.2,1.5c-1.3,0.3-2.8,0.4-4.6,0.4H91.4V234.6z M103.8,249
				c0.9,0,1.6-0.1,2.2-0.2c0.6-0.1,1.1-0.3,1.5-0.7c0.4-0.3,0.7-0.8,0.9-1.4s0.3-1.4,0.3-2.5c0-0.8-0.1-1.6-0.3-2.1
				c-0.2-0.6-0.5-1-0.9-1.4c-0.4-0.3-0.9-0.6-1.5-0.7c-0.6-0.1-1.3-0.2-2-0.2h-6.7v9.2H103.8z M105,263.5c0.7,0,1.4-0.1,2-0.2
				c0.6-0.1,1.1-0.4,1.6-0.7c0.4-0.4,0.8-0.8,1-1.5c0.2-0.6,0.4-1.5,0.4-2.5s-0.1-1.9-0.3-2.5s-0.5-1.1-0.9-1.4
				c-0.4-0.3-1-0.6-1.6-0.7c-0.7-0.1-1.4-0.2-2.3-0.2h-7.4v9.6H105z"/>
			<path class="st1" d="M121.9,261.6c0-1.4,0.2-2.6,0.6-3.6c0.4-1,1-1.8,1.7-2.4c0.7-0.6,1.6-1,2.6-1.3c1-0.3,2.1-0.4,3.2-0.4
				c1.2,0,2.2,0.1,3.2,0.2c0.9,0.1,1.8,0.3,2.5,0.4c0.8,0.2,1.5,0.4,2.2,0.6v-2.3c0-0.6,0-1.1-0.1-1.5c0-0.4-0.1-0.8-0.2-1.1
				c-0.1-0.3-0.2-0.6-0.4-0.8c-0.2-0.2-0.4-0.4-0.6-0.6c-0.5-0.4-1.2-0.6-2.1-0.8c-0.9-0.2-2.1-0.2-3.5-0.2c-0.9,0-1.8,0-2.7,0.1
				c-0.9,0.1-1.6,0.1-2.3,0.2c-0.8,0.1-1.5,0.2-2.3,0.3v-4c0.6-0.3,1.4-0.5,2.4-0.7c0.8-0.2,1.8-0.3,3-0.5c1.2-0.2,2.6-0.2,4.3-0.2
				c1.1,0,2.1,0,3,0.1c0.9,0.1,1.6,0.2,2.3,0.4c0.7,0.2,1.2,0.5,1.8,0.8c0.5,0.3,1,0.7,1.4,1.2c0.3,0.4,0.6,0.9,0.8,1.3
				c0.2,0.5,0.4,1,0.6,1.6c0.1,0.6,0.2,1.3,0.3,2.1c0.1,0.8,0.1,1.7,0.1,2.8v15.3h-4.9l-0.4-1.9c-0.7,0.5-1.5,0.9-2.4,1.3
				c-0.7,0.3-1.6,0.6-2.6,0.9c-1,0.3-2.1,0.4-3.3,0.4c-1.5,0-2.7-0.1-3.7-0.4c-1-0.3-1.9-0.7-2.5-1.4c-0.7-0.6-1.1-1.4-1.4-2.4
				C122,264.2,121.9,263,121.9,261.6z M127.8,261.6c0,0.7,0.1,1.3,0.3,1.7s0.4,0.7,0.8,0.9s0.8,0.4,1.2,0.4c0.5,0.1,1.1,0.1,1.7,0.1
				c0.8,0,1.6-0.1,2.3-0.2c0.7-0.2,1.4-0.3,2-0.5c0.6-0.2,1.3-0.4,1.8-0.7v-4.4c-0.5-0.1-1.1-0.2-1.7-0.3c-0.5-0.1-1.1-0.1-1.8-0.2
				c-0.7-0.1-1.3-0.1-2.1-0.1c-0.8,0-1.5,0-2.1,0.1c-0.6,0.1-1,0.2-1.4,0.5c-0.4,0.2-0.6,0.6-0.8,1S127.8,260.9,127.8,261.6z"/>
			<path class="st1" d="M151.7,243.5h4.2l0.7,1.9c0.9-0.5,1.9-0.9,2.9-1.3c0.9-0.3,1.9-0.6,3.1-0.9c1.2-0.3,2.4-0.4,3.8-0.4
				c2.5,0,4.4,0.6,5.6,1.9c1.2,1.3,1.8,3.3,1.8,6.1v17.9h-5.8v-17.2c0-0.7,0-1.2-0.1-1.7c-0.1-0.5-0.3-0.9-0.6-1.1
				c-0.3-0.3-0.7-0.5-1.3-0.7c-0.5-0.1-1.3-0.2-2.2-0.2c-1,0-1.8,0.1-2.6,0.2c-0.8,0.1-1.5,0.2-2,0.4c-0.7,0.2-1.3,0.3-1.8,0.5v19.8
				h-5.8V243.5z"/>
			<path class="st1" d="M183.9,275c0.6,0.1,1.3,0.2,2,0.3c0.6,0.1,1.4,0.1,2.3,0.2c0.9,0.1,1.9,0.1,3,0.1c1.4,0,2.5-0.1,3.3-0.2
				c0.8-0.1,1.5-0.3,2-0.5c0.5-0.3,0.8-0.6,1-1.1s0.3-1,0.3-1.7v-4.4c-0.7,0.3-1.5,0.6-2.3,0.8c-0.7,0.2-1.5,0.4-2.4,0.6
				c-0.9,0.2-1.8,0.3-2.8,0.3c-1.7,0-3.2-0.2-4.4-0.7c-1.2-0.5-2.2-1.2-3-2.3c-0.8-1.1-1.4-2.4-1.7-4.1s-0.6-3.8-0.6-6.3
				c0-2,0.2-3.9,0.6-5.5c0.4-1.6,1-3,1.8-4.1c0.8-1.1,1.8-2,2.9-2.6c1.2-0.6,2.5-0.9,4-0.9c1.3,0,2.4,0.1,3.5,0.4
				c1.1,0.3,2,0.5,2.8,0.8c0.9,0.4,1.7,0.8,2.4,1.2l0.7-1.9h4.4v29c0,1.5-0.2,2.8-0.7,3.8c-0.4,1-1.1,1.9-2,2.5
				c-0.9,0.6-2,1.1-3.4,1.4c-1.3,0.3-2.9,0.4-4.7,0.4c-1.1,0-2.2-0.1-3.3-0.2s-2-0.3-2.9-0.5c-1-0.2-1.9-0.5-2.8-0.7V275z
				 M192.3,264.3c0.7,0,1.3,0,2-0.1c0.7-0.1,1.2-0.1,1.8-0.2c0.6-0.1,1.2-0.2,1.7-0.3v-14.4c-0.6-0.2-1.3-0.4-2-0.6
				c-0.6-0.2-1.3-0.3-2.1-0.4c-0.8-0.1-1.6-0.2-2.4-0.2c-0.9,0-1.6,0.1-2.2,0.4c-0.6,0.3-1.1,0.7-1.4,1.4c-0.4,0.6-0.6,1.5-0.8,2.5
				c-0.2,1.1-0.2,2.4-0.2,3.9c0,1.4,0,2.7,0.1,3.7c0.1,1,0.3,1.9,0.7,2.5c0.4,0.6,0.9,1.1,1.7,1.4
				C189.9,264.1,191,264.3,192.3,264.3z"/>
			<path class="st1" d="M211.6,231.6h5.8v37.1h-5.8V231.6z"/>
			<path class="st1" d="M224.4,261.6c0-1.4,0.2-2.6,0.6-3.6c0.4-1,1-1.8,1.7-2.4c0.7-0.6,1.6-1,2.6-1.3c1-0.3,2.1-0.4,3.2-0.4
				c1.2,0,2.2,0.1,3.2,0.2c0.9,0.1,1.8,0.3,2.5,0.4c0.8,0.2,1.5,0.4,2.2,0.6v-2.3c0-0.6,0-1.1-0.1-1.5c0-0.4-0.1-0.8-0.2-1.1
				c-0.1-0.3-0.2-0.6-0.4-0.8c-0.2-0.2-0.4-0.4-0.6-0.6c-0.5-0.4-1.2-0.6-2.1-0.8c-0.9-0.2-2.1-0.2-3.5-0.2c-0.9,0-1.8,0-2.7,0.1
				c-0.9,0.1-1.6,0.1-2.3,0.2c-0.8,0.1-1.5,0.2-2.3,0.3v-4c0.6-0.3,1.4-0.5,2.4-0.7c0.8-0.2,1.8-0.3,3-0.5c1.2-0.2,2.6-0.2,4.3-0.2
				c1.1,0,2.1,0,3,0.1c0.9,0.1,1.6,0.2,2.3,0.4c0.7,0.2,1.2,0.5,1.8,0.8c0.5,0.3,1,0.7,1.4,1.2c0.3,0.4,0.6,0.9,0.8,1.3
				c0.2,0.5,0.4,1,0.6,1.6c0.1,0.6,0.2,1.3,0.3,2.1c0.1,0.8,0.1,1.7,0.1,2.8v15.3h-4.9l-0.4-1.9c-0.7,0.5-1.5,0.9-2.4,1.3
				c-0.7,0.3-1.6,0.6-2.6,0.9c-1,0.3-2.1,0.4-3.3,0.4c-1.5,0-2.7-0.1-3.7-0.4c-1-0.3-1.9-0.7-2.5-1.4c-0.7-0.6-1.1-1.4-1.4-2.4
				C224.6,264.2,224.4,263,224.4,261.6z M230.3,261.6c0,0.7,0.1,1.3,0.3,1.7s0.4,0.7,0.8,0.9s0.8,0.4,1.2,0.4
				c0.5,0.1,1.1,0.1,1.7,0.1c0.8,0,1.6-0.1,2.3-0.2c0.7-0.2,1.4-0.3,2-0.5c0.6-0.2,1.3-0.4,1.8-0.7v-4.4c-0.5-0.1-1.1-0.2-1.7-0.3
				c-0.5-0.1-1.1-0.1-1.8-0.2c-0.7-0.1-1.3-0.1-2.1-0.1c-0.8,0-1.5,0-2.1,0.1c-0.6,0.1-1,0.2-1.4,0.5c-0.4,0.2-0.6,0.6-0.8,1
				S230.3,260.9,230.3,261.6z"/>
		</g>
	</g>
</g>
</svg>
